<?xml version="1.0" encoding="UTF-8"?>
<svg id="SP_KeyBezier_Sm_N_D_2x" xmlns="http://www.w3.org/2000/svg" version="1.1" viewBox="0 0 32 32">
  <!-- Generator: Adobe Illustrator 30.0.0, SVG Export Plug-In . SVG Version: 2.1.1 Build 123)  -->
  <defs>
    <style>
      .st0 {
        fill: #575550;
        fill-rule: evenodd;
        isolation: isolate;
      }
    </style>
  </defs>
  <path id="Fill" class="st0" d="M25.49,26c.28,0,.5-.23.5-.51,0,0,0,0,0,0-.28-7.4-6.61-5.59-6.59-10.48s6.31-3.12,6.59-10.48c0-.28-.21-.51-.49-.52,0,0,0,0,0,0H4.51c-.28,0-.5.23-.5.51,0,0,0,0,0,0,.28,7.36,6.56,5.59,6.59,10.48.02,4.89-6.31,3.08-6.59,10.48,0,.28.21.51.49.52,0,0,0,0,0,0h20.98Z"/>
</svg>